<svg xmlns="http://www.w3.org/2000/svg" width="900" height="144.153" viewBox="0 0 900 144.153"><g id="Group_1" data-name="Group 1" transform="translate(-50.442 -382.092)"><path id="Path_1" data-name="Path 1" d="M326.107,522.55h-41.63l-8.755-24.512H223.2l-8.949,24.512H172.617l53.109-135.983h47.467Zm-61.862-56.417L249.46,425.28l-14.785,40.853Z" fill="#350964"></path><path id="Path_2" data-name="Path 2" d="M471.227,386.566V522.55H438.934l-54.471-67.895V522.55H343.8V386.567H376.1l54.471,67.7v-67.7Z" fill="#350964"></path><path id="Path_3" data-name="Path 3" d="M642.426,522.55H600.793l-8.753-24.512H539.515l-8.95,24.512h-41.63l53.108-135.984h47.468Zm-61.863-56.417-14.786-40.854-14.786,40.854Z" fill="#350964"></path><path id="Path_4" data-name="Path 4" d="M716.131,526.245c-41.047,0-71.2-32.488-71.2-72.173s30.737-71.98,71.785-71.98c24.511,0,45.522,11.479,58.362,29.375l-30.933,19.65c-5.835-6.81-14.589-11.089-25.29-11.089-20.62,0-34.043,16.147-34.043,34.044s12.644,34.239,33.266,34.239c12.255,0,21.788-5.447,26.262-14.4H721.384v-31.9h65.365a82.025,82.025,0,0,1,.972,12.061C787.721,493.757,756.012,526.245,716.131,526.245Z" fill="#350964"></path><path id="Path_5" data-name="Path 5" d="M950.442,454.072c0,39.685-31.516,72.173-73.147,72.173s-73.147-32.488-73.147-72.173,31.516-71.98,73.147-71.98S950.442,414.387,950.442,454.072Zm-40.659,0c0-17.509-13.423-33.267-32.488-33.267s-32.488,15.758-32.488,33.267,13.423,33.46,32.488,33.46S909.783,471.581,909.783,454.072Z" fill="#350964"></path><path id="Path_6" data-name="Path 6" d="M174.752,438.309c0,28.6-19.26,51.747-55.055,51.747H91.1v32.683H50.442V386.756H119.7C155.492,386.756,174.752,409.712,174.752,438.309Zm-40.464,0c0-8.949-6.81-16.146-17.12-16.146H91.1v32.488h26.068C127.478,454.651,134.288,447.257,134.288,438.309Z" fill="#350964"></path></g></svg>